<svg width="8" height="6" viewBox="0 0 8 6" fill="none"
     xmlns="http://www.w3.org/2000/svg">
    <path d="M7.2 0H0.8C0.36 0 0 0.3375 0 0.75V5.25C0 5.6625 0.36 6 0.8 6H7.2C7.64 6 8 5.6625 8 5.25V0.75C8 0.3375 7.64 0 7.2 0ZM7.04 1.59375L4.424 3.1275C4.164 3.28125 3.836 3.28125 3.576 3.1275L0.96 1.59375C0.86 1.53375 0.8 1.4325 0.8 1.32375C0.8 1.0725 1.092 0.9225 1.32 1.05375L4 2.625L6.68 1.05375C6.908 0.9225 7.2 1.0725 7.2 1.32375C7.2 1.4325 7.14 1.53375 7.04 1.59375Z"
          fill="white"/>
</svg>
