<svg width="8" height="8" viewBox="0 0 8 8" fill="none"
     xmlns="http://www.w3.org/2000/svg">
    <path d="M7.56 5.50222C7.01333 5.50222 6.48444 5.41333 5.99111 5.25333C5.83556 5.2 5.66222 5.24 5.54222 5.36L4.84444 6.23556C3.58667 5.63556 2.40889 4.50222 1.78222 3.2L2.64889 2.46222C2.76889 2.33778 2.80444 2.16444 2.75556 2.00889C2.59111 1.51556 2.50667 0.986667 2.50667 0.44C2.50667 0.2 2.30667 0 2.06667 0H0.528889C0.288889 0 0 0.106667 0 0.44C0 4.56889 3.43556 8 7.56 8C7.87556 8 8 7.72 8 7.47556V5.94222C8 5.70222 7.8 5.50222 7.56 5.50222Z"
          fill="white"/>
</svg>
